<?xml version="1.0" encoding="UTF-8" standalone="no"?>
<svg xmlns="http://www.w3.org/2000/svg" version="1.1" viewBox="0 0 212 270">
   <polyline fill="none" points="113,130 143,130" stroke="rgb(0, 0, 0)" stroke-linecap="square" stroke-width="3.0"/>
   <polyline fill="none" points="63,130 93,130" stroke="rgb(0, 0, 0)" stroke-linecap="square" stroke-width="3.0"/>
   <polyline fill="none" points="63,200 33,200 33,230 33,250 63,250" stroke="rgb(0, 0, 0)" stroke-linecap="square" stroke-width="3.0"/>
   <polyline fill="none" points="83,250 103,250 103,220 103,200 83,200" stroke="rgb(0, 0, 0)" stroke-linecap="square" stroke-width="3.0"/>
   <polyline fill="none" points="103,220 123,220" stroke="rgb(0, 0, 0)" stroke-linecap="square" stroke-width="3.0"/>
   <polyline fill="none" points="93,40 103,40" stroke="rgb(0, 0, 0)" stroke-linecap="square" stroke-width="3.0"/>
   <circle cx="103.0" cy="220.0" fill="rgb(0, 0, 0)" r="5.0" stroke="none" stroke-width="3.0"/>
   <circle cx="33.0" cy="230.0" fill="rgb(0, 0, 0)" r="5.0" stroke="none" stroke-width="3.0"/>
   <circle cx="93.0" cy="40.0" fill="rgb(0, 0, 0)" r="5.0" stroke="none" stroke-width="3.0"/>
   <circle cx="43.0" cy="130.0" fill="rgb(0, 0, 0)" r="2.0" stroke="none" stroke-width="1.0"/>
   <polygon fill="rgb(178, 178, 178)" points="46,115 63,115 63,145 46,145 43,142" stroke="none" stroke-linecap="square" stroke-width="1.0"/>
   <polygon fill="rgb(255, 255, 255)" points="46,115 63,115 60,142 43,142" stroke="none" stroke-linecap="square" stroke-width="1.0"/>
   <polygon fill="none" points="46,115 63,115 63,145 46,145 43,142" stroke="rgb(0, 0, 0)" stroke-linecap="square" stroke-width="1.0"/>
   <polygon fill="none" points="46,115 63,115 60,142 43,142" stroke="rgb(0, 0, 0)" stroke-linecap="square" stroke-width="1.0"/>
   <polyline fill="none" points="45,128 61,128" stroke="rgb(0, 0, 0)" stroke-linecap="square" stroke-width="1.0"/>
   <polyline fill="none" points="60,142 63,145" stroke="rgb(0, 0, 0)" stroke-linecap="square" stroke-width="1.0"/>
   <polyline fill="none" points="51,137 52,133" stroke="rgb(0, 0, 0)" stroke-linecap="square" stroke-width="1.0"/>
   <ellipse cx="53.0" cy="121.0" fill="none" rx="1.5" ry="2.0" stroke="rgb(0, 0, 0)" stroke-width="1.0"/>
   <circle cx="63.0" cy="130.0" fill="rgb(0, 0, 0)" r="2.0" stroke="none" stroke-width="1.0"/>
   <circle cx="93.0" cy="130.0" fill="rgb(0, 0, 0)" r="2.0" stroke="none" stroke-width="1.0"/>
   <polygon fill="rgb(178, 178, 178)" points="96,115 113,115 113,145 96,145 93,142" stroke="none" stroke-linecap="square" stroke-width="1.0"/>
   <polygon fill="rgb(255, 255, 255)" points="96,115 113,115 110,142 93,142" stroke="none" stroke-linecap="square" stroke-width="1.0"/>
   <polygon fill="none" points="96,115 113,115 113,145 96,145 93,142" stroke="rgb(0, 0, 0)" stroke-linecap="square" stroke-width="1.0"/>
   <polygon fill="none" points="96,115 113,115 110,142 93,142" stroke="rgb(0, 0, 0)" stroke-linecap="square" stroke-width="1.0"/>
   <polyline fill="none" points="95,128 111,128" stroke="rgb(0, 0, 0)" stroke-linecap="square" stroke-width="1.0"/>
   <polyline fill="none" points="110,142 113,145" stroke="rgb(0, 0, 0)" stroke-linecap="square" stroke-width="1.0"/>
   <polyline fill="none" points="101,137 102,133" stroke="rgb(0, 0, 0)" stroke-linecap="square" stroke-width="1.0"/>
   <ellipse cx="103.0" cy="121.0" fill="none" rx="1.5" ry="2.0" stroke="rgb(0, 0, 0)" stroke-width="1.0"/>
   <circle cx="113.0" cy="130.0" fill="rgb(0, 0, 0)" r="2.0" stroke="none" stroke-width="1.0"/>
   <polyline fill="none" points="43,130 13,130 13,120 13,115" stroke="rgb(0, 0, 0)" stroke-linecap="square" stroke-width="3.0"/>
   <polygon fill="none" points="5,114 13,106 21,114" stroke="rgb(0, 0, 0)" stroke-linecap="square" stroke-width="1.0"/>
   <circle cx="13.0" cy="120.0" fill="rgb(0, 0, 0)" r="2.0" stroke="none" stroke-width="1.0"/>
   <circle cx="153.0" cy="130.0" fill="none" r="9.0" stroke="rgb(0, 0, 0)" stroke-width="2.0"/>
   <circle cx="143.0" cy="130.0" fill="rgb(0, 0, 0)" r="2.0" stroke="none" stroke-width="1.0"/>
   <circle cx="63.0" cy="200.0" fill="rgb(0, 0, 0)" r="2.0" stroke="none" stroke-width="1.0"/>
   <polygon fill="rgb(178, 178, 178)" points="66,185 83,185 83,215 66,215 63,212" stroke="none" stroke-linecap="square" stroke-width="1.0"/>
   <polygon fill="rgb(255, 255, 255)" points="66,185 83,185 80,212 63,212" stroke="none" stroke-linecap="square" stroke-width="1.0"/>
   <polygon fill="none" points="66,185 83,185 83,215 66,215 63,212" stroke="rgb(0, 0, 0)" stroke-linecap="square" stroke-width="1.0"/>
   <polygon fill="none" points="66,185 83,185 80,212 63,212" stroke="rgb(0, 0, 0)" stroke-linecap="square" stroke-width="1.0"/>
   <polyline fill="none" points="65,198 81,198" stroke="rgb(0, 0, 0)" stroke-linecap="square" stroke-width="1.0"/>
   <polyline fill="none" points="80,212 83,215" stroke="rgb(0, 0, 0)" stroke-linecap="square" stroke-width="1.0"/>
   <polyline fill="none" points="71,207 72,203" stroke="rgb(0, 0, 0)" stroke-linecap="square" stroke-width="1.0"/>
   <ellipse cx="73.0" cy="191.0" fill="none" rx="1.5" ry="2.0" stroke="rgb(0, 0, 0)" stroke-width="1.0"/>
   <circle cx="83.0" cy="200.0" fill="rgb(0, 0, 0)" r="2.0" stroke="none" stroke-width="1.0"/>
   <polyline fill="none" points="33,230 13,230 13,220 13,215" stroke="rgb(0, 0, 0)" stroke-linecap="square" stroke-width="3.0"/>
   <polygon fill="none" points="5,214 13,206 21,214" stroke="rgb(0, 0, 0)" stroke-linecap="square" stroke-width="1.0"/>
   <circle cx="13.0" cy="220.0" fill="rgb(0, 0, 0)" r="2.0" stroke="none" stroke-width="1.0"/>
   <circle cx="133.0" cy="220.0" fill="none" r="9.0" stroke="rgb(0, 0, 0)" stroke-width="2.0"/>
   <circle cx="123.0" cy="220.0" fill="rgb(0, 0, 0)" r="2.0" stroke="none" stroke-width="1.0"/>
   <circle cx="63.0" cy="250.0" fill="rgb(0, 0, 0)" r="2.0" stroke="none" stroke-width="1.0"/>
   <polygon fill="rgb(178, 178, 178)" points="66,235 83,235 83,265 66,265 63,262" stroke="none" stroke-linecap="square" stroke-width="1.0"/>
   <polygon fill="rgb(255, 255, 255)" points="66,235 83,235 80,262 63,262" stroke="none" stroke-linecap="square" stroke-width="1.0"/>
   <polygon fill="none" points="66,235 83,235 83,265 66,265 63,262" stroke="rgb(0, 0, 0)" stroke-linecap="square" stroke-width="1.0"/>
   <polygon fill="none" points="66,235 83,235 80,262 63,262" stroke="rgb(0, 0, 0)" stroke-linecap="square" stroke-width="1.0"/>
   <polyline fill="none" points="65,248 81,248" stroke="rgb(0, 0, 0)" stroke-linecap="square" stroke-width="1.0"/>
   <polyline fill="none" points="80,262 83,265" stroke="rgb(0, 0, 0)" stroke-linecap="square" stroke-width="1.0"/>
   <polyline fill="none" points="71,257 72,253" stroke="rgb(0, 0, 0)" stroke-linecap="square" stroke-width="1.0"/>
   <ellipse cx="73.0" cy="241.0" fill="none" rx="1.5" ry="2.0" stroke="rgb(0, 0, 0)" stroke-width="1.0"/>
   <circle cx="83.0" cy="250.0" fill="rgb(0, 0, 0)" r="2.0" stroke="none" stroke-width="1.0"/>
   <polyline fill="none" points="73,40 93,40 93,20 93,15" stroke="rgb(0, 0, 0)" stroke-linecap="square" stroke-width="3.0"/>
   <polygon fill="none" points="85,14 93,6 101,14" stroke="rgb(0, 0, 0)" stroke-linecap="square" stroke-width="1.0"/>
   <circle cx="93.0" cy="20.0" fill="rgb(0, 0, 0)" r="2.0" stroke="none" stroke-width="1.0"/>
   <circle cx="113.0" cy="40.0" fill="none" r="9.0" stroke="rgb(0, 0, 0)" stroke-width="2.0"/>
   <circle cx="103.0" cy="40.0" fill="rgb(0, 0, 0)" r="2.0" stroke="none" stroke-width="1.0"/>
   <circle cx="53.0" cy="40.0" fill="rgb(0, 0, 0)" r="2.0" stroke="none" stroke-width="1.0"/>
   <polygon fill="rgb(178, 178, 178)" points="56,25 73,25 73,55 56,55 53,52" stroke="none" stroke-linecap="square" stroke-width="1.0"/>
   <polygon fill="rgb(255, 255, 255)" points="56,25 73,25 70,52 53,52" stroke="none" stroke-linecap="square" stroke-width="1.0"/>
   <polygon fill="none" points="56,25 73,25 73,55 56,55 53,52" stroke="rgb(0, 0, 0)" stroke-linecap="square" stroke-width="1.0"/>
   <polygon fill="none" points="56,25 73,25 70,52 53,52" stroke="rgb(0, 0, 0)" stroke-linecap="square" stroke-width="1.0"/>
   <polyline fill="none" points="55,38 71,38" stroke="rgb(0, 0, 0)" stroke-linecap="square" stroke-width="1.0"/>
   <polyline fill="none" points="70,52 73,55" stroke="rgb(0, 0, 0)" stroke-linecap="square" stroke-width="1.0"/>
   <polyline fill="none" points="61,47 62,43" stroke="rgb(0, 0, 0)" stroke-linecap="square" stroke-width="1.0"/>
   <ellipse cx="63.0" cy="31.0" fill="none" rx="1.5" ry="2.0" stroke="rgb(0, 0, 0)" stroke-width="1.0"/>
   <circle cx="73.0" cy="40.0" fill="rgb(0, 0, 0)" r="2.0" stroke="none" stroke-width="1.0"/>
   <polyline fill="none" points="53,40 23,40 23,50 23,55" stroke="rgb(0, 0, 0)" stroke-linecap="square" stroke-width="3.0"/>
   <polyline fill="none" points="31,56 15,56" stroke="rgb(0, 0, 0)" stroke-linecap="square" stroke-width="1.0"/>
   <polyline fill="none" points="28,59 18,59" stroke="rgb(0, 0, 0)" stroke-linecap="square" stroke-width="1.0"/>
   <polyline fill="none" points="25,62 21,62" stroke="rgb(0, 0, 0)" stroke-linecap="square" stroke-width="1.0"/>
   <circle cx="23.0" cy="50.0" fill="rgb(0, 0, 0)" r="2.0" stroke="none" stroke-width="1.0"/>
   <text fill="rgb(0, 0, 0)" font-family="SansSerif" font-size="16" font-weight="bold" x="144.0" y="44.0">NOT</text>
   <text fill="rgb(0, 0, 0)" font-family="SansSerif" font-size="16" font-weight="bold" x="167.0" y="134.0">AND</text>
   <text fill="rgb(0, 0, 0)" font-family="SansSerif" font-size="16" font-weight="bold" x="161.0" y="220.0">OR</text>
</svg>
